{
    "asset": {
        "version": "2.0",
        "generator": "Custom Female Avatar"
    },
    "scene": 0,
    "scenes": [
        {
            "nodes": [0]
        }
    ],
    "nodes": [
        {
            "name": "FemaleAvatar",
            "children": [1, 2, 3],
            "translation": [0, 0, 0],
            "rotation": [0, 0, 0, 1],
            "scale": [1, 1, 1]
        },
        {
            "name": "Skin_Base",
            "mesh": 0
        },
        {
            "name": "Hair_Default",
            "mesh": 1
        },
        {
            "name": "Hair_Long",
            "mesh": 2,
            "visible": false
        }
    ],
    "materials": [
        {
            "name": "SkinMaterial",
            "pbrMetallicRoughness": {
                "baseColorFactor": [0.9607843137254902, 0.8784313725490196, 0.7411764705882353, 1],
                "metallicFactor": 0,
                "roughnessFactor": 0.5
            }
        },
        {
            "name": "HairMaterial",
            "pbrMetallicRoughness": {
                "baseColorFactor": [0.1, 0.1, 0.1, 1],
                "metallicFactor": 0.1,
                "roughnessFactor": 0.8
            }
        }
    ],
    "meshes": [
        {
            "name": "FemaleSkinMesh",
            "primitives": [
                {
                    "attributes": {
                        "POSITION": 0,
                        "NORMAL": 1,
                        "TEXCOORD_0": 2
                    },
                    "indices": 3,
                    "material": 0
                }
            ]
        },
        {
            "name": "FemaleHairDefault",
            "primitives": [
                {
                    "attributes": {
                        "POSITION": 4,
                        "NORMAL": 5,
                        "TEXCOORD_0": 6
                    },
                    "indices": 7,
                    "material": 1
                }
            ]
        },
        {
            "name": "FemaleHairLong",
            "primitives": [
                {
                    "attributes": {
                        "POSITION": 8,
                        "NORMAL": 9,
                        "TEXCOORD_0": 10
                    },
                    "indices": 11,
                    "material": 1
                }
            ]
        }
    ],
    "accessors": [
        {
            "bufferView": 0,
            "componentType": 5126,
            "count": 2076,
            "max": [1, 2, 0.5],
            "min": [-1, 0, -0.5],
            "type": "VEC3"
        },
        {
            "bufferView": 1,
            "componentType": 5126,
            "count": 2076,
            "type": "VEC3"
        },
        {
            "bufferView": 2,
            "componentType": 5126,
            "count": 2076,
            "type": "VEC2"
        },
        {
            "bufferView": 3,
            "componentType": 5123,
            "count": 3114,
            "type": "SCALAR"
        },
        {
            "bufferView": 4,
            "componentType": 5126,
            "count": 864,
            "max": [0.5, 2.2, 0.5],
            "min": [-0.5, 1.5, -0.5],
            "type": "VEC3"
        },
        {
            "bufferView": 5,
            "componentType": 5126,
            "count": 864,
            "type": "VEC3"
        },
        {
            "bufferView": 6,
            "componentType": 5126,
            "count": 864,
            "type": "VEC2"
        },
        {
            "bufferView": 7,
            "componentType": 5123,
            "count": 1296,
            "type": "SCALAR"
        },
        {
            "bufferView": 8,
            "componentType": 5126,
            "count": 1248,
            "max": [0.6, 2.3, 0.6],
            "min": [-0.6, 1.5, -0.6],
            "type": "VEC3"
        },
        {
            "bufferView": 9,
            "componentType": 5126,
            "count": 1248,
            "type": "VEC3"
        },
        {
            "bufferView": 10,
            "componentType": 5126,
            "count": 1248,
            "type": "VEC2"
        },
        {
            "bufferView": 11,
            "componentType": 5123,
            "count": 1872,
            "type": "SCALAR"
        }
    ],
    "bufferViews": [
        {
            "buffer": 0,
            "byteOffset": 0,
            "byteLength": 24912,
            "target": 34962
        },
        {
            "buffer": 0,
            "byteOffset": 24912,
            "byteLength": 24912,
            "target": 34962
        },
        {
            "buffer": 0,
            "byteOffset": 49824,
            "byteLength": 16608,
            "target": 34962
        },
        {
            "buffer": 0,
            "byteOffset": 66432,
            "byteLength": 6228,
            "target": 34963
        },
        {
            "buffer": 0,
            "byteOffset": 72660,
            "byteLength": 10368,
            "target": 34962
        },
        {
            "buffer": 0,
            "byteOffset": 83028,
            "byteLength": 10368,
            "target": 34962
        },
        {
            "buffer": 0,
            "byteOffset": 93396,
            "byteLength": 6912,
            "target": 34962
        },
        {
            "buffer": 0,
            "byteOffset": 100308,
            "byteLength": 2592,
            "target": 34963
        },
        {
            "buffer": 0,
            "byteOffset": 102900,
            "byteLength": 14976,
            "target": 34962
        },
        {
            "buffer": 0,
            "byteOffset": 117876,
            "byteLength": 14976,
            "target": 34962
        },
        {
            "buffer": 0,
            "byteOffset": 132852,
            "byteLength": 9984,
            "target": 34962
        },
        {
            "buffer": 0,
            "byteOffset": 142836,
            "byteLength": 3744,
            "target": 34963
        }
    ],
    "buffers": [
        {
            "byteLength": 146580,
            "uri": "female_avatar_data.bin"
        }
    ]
}
